<svg xmlns="http://www.w3.org/2000/svg" width="1200" height="266" viewBox="0 0 1200 266">
  <g fill="none" transform="translate(-24 -36)">
    <rect width="1200" height="258" x="24" y="36" fill="#2E7599"/>
    <g fill="#FFF">
      <path d="M24,288 C271.333333,226.666667 483.333333,204.666667 660,222 C836.666667,239.333333 1024.66667,215.666667 1224,151 L1224,301.5 L24,301.5"/>
      <path fill-opacity=".235" d="M304.069993,201.258185 C448.171521,227.207996 740.467974,170.639366 842.454136,185.776251 C1032.95714,214.050891 1161.84332,199.67318 1229.11267,142.643117 L1223.39264,224.443369 L17.9240258,246.407633 C-37.0236119,172.06024 58.358377,157.010424 304.069993,201.258185 Z" transform="rotate(-4 615.987 194.525)"/>
      <path fill-opacity=".235" d="M253.298622,140.936243 C394.254835,161.079874 542.938053,257.691656 852.624082,206.556017 C922.082254,195.08702 1047.69563,154.860233 1229.46419,85.8756556 L1220.59383,255.132322 L17.5500722,262.680221 C-23.1376453,153.242929 55.4452045,112.661603 253.298622,140.936243 Z" transform="rotate(-3 618.302 174.278)"/>
      <path fill-opacity=".235" d="M722.229306,153.074881 C912.732309,183.652954 1077.6959,143.217466 1217.12007,31.7684182 L1226.71858,176.704335 L30.8667756,325.494295 C301.272126,179.969945 531.726303,122.496807 722.229306,153.074881 Z" transform="rotate(3 628.793 178.631)"/>
    </g>
  </g>
</svg>
