<svg xmlns="http://www.w3.org/2000/svg" width="170" height="47" viewBox="0 0 170 47">
  <g fill="#FFF" fill-rule="evenodd">
    <g transform="translate(0 5.306)">
      <polygon points="16.46 18.613 15.533 5.812 11.165 18.664 8.256 18.664 3.863 5.812 2.986 18.613 0 18.613 1.33 1.086 5.545 1.086 9.936 14.321 14.303 1.086 18.443 1.086 19.773 18.613"/>
      <path fill-rule="nonzero" d="M29.6646256 18.9432742C24.7466079 18.9432742 21.5577974 15.2856129 21.5577974 9.87530645 21.5577974 4.43998387 24.7713216.757306452 29.713304.757306452 34.6829956.757306452 37.8208811 4.41496774 37.8208811 9.82451613 37.8208811 15.2355806 34.6335683 18.9432742 29.6646256 18.9432742zM29.6885903 3.55304839C26.7274449 3.55304839 24.9465639 6.01372581 24.9465639 9.85104839 24.9465639 13.6860968 26.7274449 16.1513226 29.6885903 16.1513226 32.6751982 16.1513226 34.4560793 13.6860968 34.4560793 9.85104839 34.4560793 6.01372581 32.6504846 3.55304839 29.6885903 3.55304839zM53.0287665 18.1564032L49.6414978 18.7916613 45.1256388 11.9076774 43.6203524 11.9076774 43.6203524 18.612 40.3064758 18.612 40.3064758 1.08630645 45.6760793 1.08630645C49.5418943 1.08630645 51.8754626 2.94129032 51.8754626 6.34424194 51.8754626 8.88451613 50.5454185 10.4847903 48.413304 11.2724194L53.0287665 18.1564032zM45.4259471 3.77970968L43.594141 3.77970968 43.594141 9.34162903 45.2761674 9.34162903C47.3333921 9.34162903 48.6132599 8.35235484 48.6132599 6.52162903 48.6132599 4.76974194 47.5093833 3.77970968 45.4259471 3.77970968z"/>
      <polygon points="66.431 18.613 58.277 6.548 58.277 18.613 55.192 18.613 55.192 1.086 58.327 1.086 66.107 12.569 66.107 1.086 69.193 1.086 69.193 18.613"/>
      <polygon points="72.759 18.613 72.759 1.086 82.823 1.086 82.823 3.932 76.048 3.932 76.048 8.047 81.267 8.047 81.719 10.943 76.048 10.943 76.048 15.769 83.314 15.769 82.241 18.614 72.759 18.614"/>
      <path fill-rule="nonzero" d="M97.1606167,18.7924194 L95.5062996,14.1682258 L88.9549339,14.1682258 L87.3740088,18.6142742 L84.0848458,18.6142742 L90.5845374,1.01125806 L94.1260793,1.01125806 L100.472996,18.1821774 L97.1606167,18.7924194 Z M92.2156388,4.66816129 L89.8581057,11.4247903 L94.5754185,11.4247903 L92.2156388,4.66816129 Z"/>
      <path d="M108.328194,18.9182581 C104.137357,18.9182581 101.403877,16.4037581 101.403877,11.831871 L101.403877,1.08630645 L104.717004,1.08630645 L104.717004,11.6537258 C104.717004,14.3205968 105.921982,15.9966774 108.354405,15.9966774 C110.81304,15.9966774 112.04348,14.4236935 112.04348,11.7302903 L112.04348,1.08630645 L115.379824,1.08630645 L115.379824,11.7545484 C115.379824,16.4037581 112.520529,18.9182581 108.328194,18.9182581 Z"/>
    </g>
    <g transform="translate(29.207 28.048)">
      <path d="M5.99718062,18.3155968 C3.88828194,18.3155968 2.08044053,17.8334677 0.550440529,17.0981452 L1.05145374,14.0219194 C2.50731278,14.8891452 4.31515419,15.5736774 6.04660793,15.5736774 C7.57735683,15.5736774 8.63030837,14.8338065 8.63030837,13.4382097 C8.63030837,12.1441935 8.02894273,11.6112742 5.51713656,10.5173871 C2.15682819,9.12254839 0.799823789,8.00440323 0.799823789,5.28598387 C0.799823789,2.18625806 3.16035242,0.382822581 6.39709251,0.382822581 C8.35321586,0.382822581 9.71022026,0.788387097 10.9646256,1.44866129 L10.4628634,4.49683871 C9.20770925,3.65993548 7.72863436,3.1255 6.37237885,3.1255 C4.71656388,3.1255 3.98788546,3.93814516 3.98788546,5.00474194 C3.98788546,6.12516129 4.53982379,6.65808065 6.94977974,7.6738871 C10.5145374,9.14756452 11.8176211,10.3907903 11.8176211,13.1107258 C11.8176211,16.5379355 9.33277533,18.3155968 5.99718062,18.3155968 Z"/>
      <polygon points="24.7 18.114 24.7 10.492 17.349 10.492 17.349 18.114 14.01 18.114 14.01 .584 17.349 .584 17.349 7.494 24.7 7.494 24.7 .584 28.039 .584 28.039 18.112 24.7 18.112"/>
      <polygon points="31.428 18.114 31.428 .584 41.49 .584 41.49 3.432 34.717 3.432 34.717 7.546 39.934 7.546 40.387 10.441 34.716 10.441 34.716 15.267 41.74 15.267 41.74 18.112 31.428 18.112"/>
      <path fill-rule="nonzero" d="M49.2221145,11.6605484 L47.7415419,11.6605484 L47.7415419,18.1139516 L44.4306608,18.1139516 L44.4306608,0.584467742 L49.4977093,0.584467742 C53.4623789,0.584467742 55.8468722,2.43945161 55.8468722,5.97051613 C55.8468722,9.75629032 53.1882819,11.6605484 49.2221145,11.6605484 Z M49.322467,3.27862903 L47.7415419,3.27862903 L47.7415419,8.94364516 L49.196652,8.94364516 C51.3302643,8.94364516 52.5846696,8.05367742 52.5846696,6.04708065 C52.5854185,4.21635484 51.4545815,3.27862903 49.322467,3.27862903 Z"/>
      <polygon points="57.963 18.114 57.963 .584 68.027 .584 68.027 3.432 61.252 3.432 61.252 7.546 66.472 7.546 66.925 10.441 61.252 10.441 61.252 15.267 68.279 15.267 68.279 18.112 57.965 18.112 57.965 18.114"/>
      <polygon points="71.258 18.114 71.258 .584 74.597 .584 74.597 15.14 80.369 15.14 80.821 18.112 71.258 18.112"/>
      <polygon points="82.812 18.114 82.812 .584 86.15 .584 86.15 15.14 91.92 15.14 92.371 18.112 82.812 18.112"/>
    </g>
    <path d="M.862731278 21.8390806L.849251101 21.8929032C.798325991 22.125629.749647577 22.3591129.70845815 22.594871L.66876652 22.8465484C.639559471 23.0307581.61185022 23.2149677.590132159 23.4006935L.547444934 23.8525.513744493 24.2451774C.496519824 24.534.48753304 24.8235806.48753304 25.1131613.48753304 33.6103065 6.76555066 40.266871 14.782511 40.266871 19.1298678 40.266871 23.2225991 38.4505484 26.3215419 35.5600484 24.1347577 36.7206452 21.6237004 37.3354355 19.0167841 37.3354355 12.7664758 37.3354355 6.79325991 33.9415806 3.7976652 28.6889516 1.91493392 25.3883387 1.42515419 21.5927097 2.26167401 18.0245 1.63933921 19.2358871 1.16154185 20.5162581.862731278 21.8390806zM14.1736564 1.61164516C20.57 1.61164516 26.1021145 4.11629032 30.2719824 7.88993548L30.3918062 8.00137097C30.5947577 8.1886129 30.7984581 8.37509677 30.999163 8.56840323 31.7989868 9.34769355 32.5433921 10.1800484 33.2301322 11.0510645L33.4023789 11.2762097 33.8472247 11.8682581 34.1939648 12.361 34.3737004 12.6232903C36.1366079 15.2386129 37.3910132 18.1192581 38.0403084 21.0378065 38.1189427 16.9366774 37.2082819 12.9196935 35.374978 9.70929032 30.6389427 1.40545161 20.4411894-1.01353226 12.6533921 1.69503226 13.164141 1.64348387 13.6703965 1.61164516 14.1736564 1.61164516z" transform="translate(131.806)"/>
    <path fill-rule="nonzero" d="M145.979824,2.94735484 C137.031233,2.94735484 127.022203,11.7363548 127.022203,23.4984839 C127.022203,36.1490645 139.004581,45.602129 149.717577,45.602129 C161.106079,45.602129 169.042907,35.0324355 169.042907,25.5490484 C169.040661,14.8580645 159.570837,2.94735484 145.979824,2.94735484 Z M151.523172,40.8937903 L151.426564,40.9218387 C150.685154,41.1303065 149.928767,41.2932903 149.156652,41.4100323 L148.900529,41.442629 C148.609207,41.4812903 148.317137,41.512371 148.021322,41.5373871 L147.718767,41.559371 C147.344317,41.583629 146.96837,41.6010645 146.590925,41.6010645 C137.835551,41.6010645 130.976388,34.3554839 130.976388,25.1116452 C130.976388,15.4341935 139.59022,6.94690323 149.410529,6.94690323 C158.053568,6.94690323 165.086476,14.1765645 165.086476,23.0641129 C165.086476,31.408129 159.243568,38.669629 151.523172,40.8937903 Z"/>
    <path d="M157.262731 32.8052419C156.74674 33.711129 156.143877 34.5237742 155.479604 35.2537903 158.88185 34.7254194 163.765419 30.7615 163.765419 23.0625968 163.765419 14.911129 157.326388 8.27958065 149.410529 8.27958065 148.565022 8.27958065 147.725507 8.35387097 146.90022 8.49108065 148.532819 8.80946774 150.133965 9.40075806 151.627269 10.2732903 159.003172 14.5836452 161.57489 25.2420323 157.262731 32.8052419zM125.704141 23.4984839C125.704141 18.3815484 127.491762 13.7952581 130.254449 10.1580645 128.496035 11.6855645 127.014714 13.4366935 125.9363 15.3295806 120.569692 24.7310968 125.185903 36.5182419 133.097269 41.1424355 134.200396 41.7867903 135.383656 42.3030323 136.613348 42.7078387 130.392996 38.551371 125.704141 31.6545 125.704141 23.4984839z"/>
  </g>
</svg>
